<?xml version="1.0" encoding="UTF-8"?>
<svg version="1.1" xmlns="http://www.w3.org/2000/svg" width="512" height="512">
<path d="M0 0 C8.94629394 6.49815269 14.85404741 14.73473903 17.5 25.4921875 C17.94708813 30.57064126 17.88221377 35.58691468 17.75 40.6796875 C17.72987889 42.02666578 17.71163815 43.3736735 17.6953125 44.72070312 C17.64860378 47.97863666 17.58311562 51.23501405 17.5 54.4921875 C18.54268036 54.48330505 19.58536072 54.47442261 20.65963745 54.465271 C30.51627771 54.38396159 40.37284935 54.32411513 50.22974968 54.28493881 C55.29653852 54.26412029 60.36305523 54.235908 65.4296875 54.19042969 C70.32507097 54.14676666 75.22019372 54.12300731 80.11575699 54.11267853 C81.9775617 54.10532374 83.83935316 54.09096197 85.70104599 54.06926727 C97.77680793 53.93422313 108.60689214 53.92451847 117.94018555 62.70776367 C124.93921424 70.71463497 128.98085045 81.49966113 133.4375 91.0546875 C134.18914006 92.656196 134.94101602 94.2575938 135.69311523 95.85888672 C141.18910221 107.58389289 146.56050207 119.36402629 151.89086914 131.16503906 C157.11218281 142.71163946 162.48173942 154.18587984 167.93286133 165.62573242 C170.77403828 171.60093538 173.58056531 177.56122493 176.0859375 183.6875 C180.60596538 194.71007621 185.01484742 201.1508539 194.5 208.4921875 C196.179697 209.97758165 197.84699076 211.47715014 199.5 212.9921875 C202.15474857 215.40287048 204.82748579 217.77435034 207.578125 220.07421875 C216.26571074 227.47475475 222.71100235 235.9306971 223.78990173 247.63793945 C224.46646524 258.98014178 224.88976988 270.3235357 225.25390625 281.6796875 C225.31956894 283.67790269 225.38540376 285.67611223 225.45140076 287.67431641 C225.58813196 291.8292178 225.72328317 295.9841664 225.85717773 300.13916016 C226.02835742 305.44930936 226.2028172 310.75934456 226.37835789 316.0693512 C226.51408418 320.18207456 226.64845975 324.29484116 226.7823925 328.40762329 C226.846255 330.36594715 226.91044497 332.32426036 226.97497749 334.28256226 C227.06479106 337.01645917 227.15287412 339.75040652 227.24047852 342.484375 C227.26695969 343.28139328 227.29344086 344.07841156 227.32072449 344.89958191 C227.34452179 345.65314468 227.36831909 346.40670746 227.39283752 347.18310547 C227.41366174 347.82601532 227.43448595 348.46892517 227.4559412 349.13131714 C227.52038243 352.58437057 227.5 356.03853282 227.5 359.4921875 C199.285 359.9871875 199.285 359.9871875 170.5 360.4921875 C168.85 364.7821875 167.2 369.0721875 165.5 373.4921875 C156.66164622 387.42382989 144.8999083 396.35438756 128.703125 399.98828125 C114.19407105 402.27080315 100.70806922 399.69056829 88.5 391.4921875 C78.59106798 383.90793161 71.07105265 374.58053344 67.5 362.4921875 C67.5 361.5021875 67.5 360.5121875 67.5 359.4921875 C8.76 359.8221875 -49.98 360.1521875 -110.5 360.4921875 C-112.15 364.7821875 -113.8 369.0721875 -115.5 373.4921875 C-123.15838107 386.91346211 -134.59154057 395.14897374 -149.375 399.3671875 C-163.51915674 402.4693002 -177.33577616 400.5940245 -189.8359375 393.28125 C-201.05746991 385.74538219 -209.63390456 375.57928074 -213.5 362.4921875 C-213.5 361.5021875 -213.5 360.5121875 -213.5 359.4921875 C-232.31 359.4921875 -251.12 359.4921875 -270.5 359.4921875 C-270.54410274 324.61200618 -270.58102654 289.73185195 -270.60213066 254.85165114 C-270.60463203 250.73239954 -270.60722068 246.613148 -270.60986328 242.49389648 C-270.6103879 241.67383822 -270.61091252 240.85377995 -270.61145304 240.00887143 C-270.62015229 226.73593023 -270.63591962 213.46300638 -270.65430559 200.19007546 C-270.673018 186.5677336 -270.68411956 172.94540081 -270.68817699 159.32304662 C-270.69091926 150.91940619 -270.69957618 142.5158148 -270.71583293 134.11218946 C-270.72641636 128.34712331 -270.72959755 122.58208247 -270.72700275 116.81700731 C-270.72572357 113.49237721 -270.72876333 110.16790166 -270.73841095 106.84327507 C-270.74837176 103.23362914 -270.74596453 99.62419248 -270.74050903 96.01454163 C-270.74633472 94.97074642 -270.7521604 93.92695121 -270.75816262 92.85152584 C-270.71121421 81.34634265 -268.48745564 72.22486294 -260.6796875 63.4453125 C-250.69433197 53.985502 -239.56391528 53.9237244 -226.56591797 54.03808594 C-224.76151047 54.03921575 -222.95710114 54.03857794 -221.1526947 54.03631592 C-216.27931216 54.03517308 -211.40632724 54.0586124 -206.53303671 54.08661175 C-201.4308282 54.11169746 -196.32860954 54.11397304 -191.22634888 54.11871338 C-181.57574336 54.13112213 -171.92532012 54.16391525 -162.2747947 54.20411134 C-151.28326202 54.24889452 -140.29172043 54.27083254 -129.30011916 54.29089308 C-106.69997857 54.33264977 -84.09999952 54.40296088 -61.5 54.4921875 C-61.50818253 53.74384644 -61.51636505 52.99550537 -61.52479553 52.2244873 C-61.5574623 48.80332525 -61.57766158 45.38219614 -61.59765625 41.9609375 C-61.61074829 40.78370117 -61.62384033 39.60646484 -61.6373291 38.39355469 C-61.69319991 25.64607043 -59.43217437 15.15455864 -50.5 5.4921875 C-36.14800329 -6.71393189 -16.6834837 -10.06222611 0 0 Z " fill="#000000" transform="translate(277.5,84.5078125)"/>
<path d="M0 0 C1.16236168 -0.00692464 2.32472335 -0.01384928 3.52230811 -0.02098376 C4.8155614 -0.02352787 6.10881469 -0.02607199 7.44125748 -0.0286932 C8.81624227 -0.03485109 10.19122525 -0.04142674 11.56620622 -0.04838699 C15.36241155 -0.06623918 19.15861353 -0.07765011 22.95484591 -0.08794367 C26.20655557 -0.09756128 29.45824585 -0.11087717 32.70994207 -0.12421263 C44.35962977 -0.17186366 56.00934492 -0.20445065 67.65909195 -0.23351192 C68.57795201 -0.23581951 69.49681207 -0.23812709 70.44351637 -0.24050459 C88.67644937 -0.2859321 106.90939425 -0.32447551 125.1423645 -0.35123444 C129.15347433 -0.35722391 133.16458399 -0.36330951 137.17569351 -0.36949825 C138.17268179 -0.37103123 139.16967007 -0.37256422 140.19687012 -0.37414365 C156.35340981 -0.39986611 172.50968907 -0.45675312 188.66609475 -0.52596355 C205.24003829 -0.59637821 221.81384703 -0.63666007 238.38793778 -0.64798397 C247.69922351 -0.65515302 257.01005673 -0.67599441 266.3211937 -0.73101139 C274.25006934 -0.77782684 282.17842451 -0.79776112 290.10743353 -0.78212989 C294.15497236 -0.77500436 298.20139595 -0.78098324 302.24876022 -0.82170773 C305.95291149 -0.85868387 309.65516148 -0.85889079 313.35936454 -0.82958411 C315.3370604 -0.82356328 317.31475382 -0.85709079 319.29215217 -0.89191824 C327.67844474 -0.77360923 327.67844474 -0.77360923 330.59943819 1.92083848 C332.36039248 4.62832888 333.67471695 6.8744378 333.67471695 10.14539433 C332.98948456 10.14903996 332.30425217 10.15268559 331.59825516 10.15644169 C325.08278325 10.1945957 318.56777218 10.25175214 312.05264378 10.32929707 C308.70449125 10.3685032 305.35683299 10.39872089 302.00845718 10.41639042 C298.14288706 10.43800591 294.27827567 10.4847535 290.4129982 10.53601933 C289.23328949 10.53724796 288.05358078 10.5384766 286.83812332 10.53974247 C274.50338684 10.75305932 262.93335771 13.60798826 253.67471695 22.14539433 C247.02582172 30.1043473 243.58148007 38.78864423 243.51358414 49.15393925 C243.50397659 50.34255054 243.49436905 51.53116184 243.48447037 52.75579166 C243.48022049 54.03291523 243.47597061 55.3100388 243.47159195 56.62586308 C243.46876457 57.28178251 243.46593719 57.93770195 243.46302414 58.61349773 C243.44806784 62.0874315 243.43881702 65.56132415 243.43448257 69.0352869 C243.4290155 72.59799465 243.40501513 76.16031683 243.37651062 79.72290421 C243.35774944 82.48468413 243.35267146 85.24637386 243.3511467 88.00821209 C243.34670301 89.95227476 243.32812123 91.89628887 243.3091774 93.84026432 C243.33955676 106.03181635 245.91080223 117.1218546 254.6083107 126.15320683 C267.77467682 137.31441994 281.89811506 136.77567237 298.27632713 136.52302265 C302.27557511 136.46474948 306.27412357 136.44231198 310.27370071 136.43247318 C321.63625823 136.39802543 332.9978573 136.30845729 344.3595314 136.16297245 C350.65728884 136.0827288 356.95406882 136.04259742 363.25234884 136.0447396 C366.57280989 136.04394495 369.88951197 136.01594679 373.20940208 135.94999409 C396.04117993 135.50341401 396.04117993 135.50341401 402.64293957 140.99572659 C404.87758453 143.21954681 406.78788746 145.62389284 408.67471695 148.14539433 C409.85309649 149.28895947 411.05588359 150.40871574 412.2958107 151.48523808 C414.19234981 153.23447318 416.08816949 154.98448857 417.9833107 156.73523808 C419.7595696 158.32587921 421.58600054 159.86240708 423.4598732 161.33680058 C425.67471695 163.14539433 425.67471695 163.14539433 426.67471695 165.14539433 C426.67471695 168.77539433 426.67471695 172.40539433 426.67471695 176.14539433 C283.78471695 176.14539433 140.89471695 176.14539433 -6.32528305 176.14539433 C-6.32528305 0.02474316 -6.32528305 0.02474316 0 0 Z " fill="#E5E5E5" transform="translate(44.32528305053711,168.85460567474365)"/>
<path d="M0 0 C0.73511307 0.00359528 1.47022614 0.00719055 2.22761536 0.01089478 C2.99829346 0.01074875 3.76897156 0.01060272 4.56300354 0.01045227 C7.12237823 0.01115157 9.68168104 0.01894471 12.24104309 0.02676392 C14.01081299 0.02862804 15.7805834 0.03005197 17.550354 0.03105164 C22.2176505 0.03487728 26.88491607 0.04470796 31.55220032 0.05575562 C36.31110719 0.06596873 41.07001905 0.07054904 45.82893372 0.07559204 C55.17335056 0.0863302 64.5177363 0.10392737 73.86213684 0.12442017 C73.86213684 11.34442017 73.86213684 22.56442017 73.86213684 34.12442017 C84.09213684 34.12442017 94.32213684 34.12442017 104.86213684 34.12442017 C104.86213684 60.52442017 104.86213684 86.92442017 104.86213684 114.12442017 C94.63213684 114.12442017 84.40213684 114.12442017 73.86213684 114.12442017 C73.86213684 125.34442017 73.86213684 136.56442017 73.86213684 148.12442017 C63.57908755 148.14697147 53.29605456 148.16533542 43.01298618 148.17623234 C38.23865404 148.1814611 33.46433963 148.18855861 28.6900177 148.19985962 C24.08647422 148.21068876 19.48294785 148.21669706 14.87939262 148.21929741 C13.11904061 148.22115161 11.35868958 148.22477213 9.5983448 148.23015022 C7.14141407 148.23736102 4.68455489 148.23841109 2.22761536 148.23794556 C1.49250229 148.24154083 0.75738922 148.24513611 0 148.24884033 C-5.023811 148.23847233 -5.023811 148.23847233 -6.13786316 147.12442017 C-6.22630109 144.6761159 -6.25315068 142.25621418 -6.23551941 139.80801392 C-6.23410446 139.07695938 -6.23268951 138.34590485 -6.23123169 137.59269714 C-6.22561724 135.24906384 -6.21306238 132.90552477 -6.20036316 130.56192017 C-6.19535002 128.97663508 -6.19078679 127.39134851 -6.18669128 125.80606079 C-6.17649237 121.91211474 -6.15692003 118.0183734 -6.13786316 114.12442017 C-16.36786316 114.12442017 -26.59786316 114.12442017 -37.13786316 114.12442017 C-37.13786316 87.72442017 -37.13786316 61.32442017 -37.13786316 34.12442017 C-26.90786316 34.12442017 -16.67786316 34.12442017 -6.13786316 34.12442017 C-6.14946472 31.75383423 -6.16106628 29.38324829 -6.17301941 26.94082642 C-6.18081012 24.65396254 -6.1868868 22.36710013 -6.1927948 20.08023071 C-6.19783473 18.48647402 -6.20466666 16.89272198 -6.21330261 15.29898071 C-6.22538314 13.01291764 -6.23109471 10.7269155 -6.23551941 8.44082642 C-6.24068069 7.72415298 -6.24584198 7.00747955 -6.25115967 6.26908875 C-6.25135579 4.55378344 -6.19978323 2.8386075 -6.13786316 1.12442017 C-4.42956906 -0.58387393 -2.27781939 0.0047009 0 0 Z " fill="#030202" transform="translate(133.1378631591797,182.87557983398438)"/>
<path d="M0 0 C143.22 0 286.44 0 434 0 C435.125 13.5 435.125 13.5 435.09765625 19.078125 C435.09515869 20.14450195 435.09266113 21.21087891 435.09008789 22.30957031 C435.07643188 24.26008301 435.07643188 24.26008301 435.0625 26.25 C435.041875 30.4575 435.02125 34.665 435 39 C425.76 39 416.52 39 407 39 C405.02 35.37 403.04 31.74 401 28 C392.83394005 16.86964604 381.14714833 8.95014516 367.50390625 6.31640625 C352.23791443 4.38731836 338.06662891 7.84987106 325.4921875 16.78125 C318.20429865 22.80919874 313.49060613 30.27348467 310 39 C249.28 39 188.56 39 126 39 C124.02 35.37 122.04 31.74 120 28 C111.83394005 16.86964604 100.14714833 8.95014516 86.50390625 6.31640625 C71.32830639 4.39874074 57.28692183 7.82553144 44.71484375 16.59375 C37.24206622 22.69867808 32.76529908 30.21430214 29 39 C19.43 39 9.86 39 0 39 C0 26.13 0 13.26 0 0 Z " fill="#FE4659" transform="translate(38,375)"/>
<path d="M0 0 C1.01080879 -0.0010952 1.01080879 -0.0010952 2.04203796 -0.00221252 C4.25038601 0.00124718 6.45657532 0.04002407 8.66455078 0.0793457 C10.20296069 0.08867977 11.74138554 0.09579308 13.27981567 0.1007843 C17.31450974 0.11980791 21.34829327 0.16886691 25.38262939 0.2243042 C29.50512375 0.27559795 33.62776629 0.29831983 37.75048828 0.32348633 C45.82902955 0.37699173 53.90683291 0.46224638 61.98486328 0.56762695 C67.31558807 11.11874945 72.48609341 21.73042124 77.48486328 32.44262695 C77.96827682 33.47614792 77.96827682 33.47614792 78.4614563 34.5305481 C82.34187496 42.8283085 86.19606751 51.13672118 89.92236328 59.50512695 C90.24591797 60.23135254 90.56947266 60.95757812 90.90283203 61.70581055 C92.98486328 66.43415083 92.98486328 66.43415083 92.98486328 67.56762695 C80.05020329 67.68349314 67.11566682 67.77232878 54.18059349 67.82668781 C48.17424561 67.85277793 42.16825286 67.88816634 36.16210938 67.94482422 C30.3654799 67.99916329 24.56919195 68.0290519 18.77232742 68.04201317 C16.56110889 68.05124952 14.34990899 68.06928606 12.13883591 68.09627724 C9.04071457 68.13259169 5.94400316 68.13757115 2.84570312 68.13525391 C1.93220093 68.15323029 1.01869873 68.17120667 0.07751465 68.18972778 C-4.11666731 68.1557991 -7.14923391 67.93923885 -10.58291626 65.38969421 C-13.32621894 62.20668313 -13.77150636 60.97924416 -13.79150391 56.84692383 C-13.81041687 55.72225708 -13.82932983 54.59759033 -13.84881592 53.43884277 C-13.83667053 52.23352905 -13.82452515 51.02821533 -13.81201172 49.78637695 C-13.81775208 48.5401355 -13.82349243 47.29389404 -13.82940674 46.0098877 C-13.8345304 42.70352119 -13.81043151 39.39885338 -13.77685547 36.0927124 C-13.76514461 34.06899052 -13.77681192 32.04682939 -13.79736328 30.02319336 C-13.83443614 26.13101863 -13.82994005 22.24114805 -13.81201172 18.34887695 C-13.8302298 16.54090637 -13.8302298 16.54090637 -13.84881592 14.69641113 C-13.82990295 13.57174438 -13.81098999 12.44707764 -13.79150391 11.28833008 C-13.78673035 10.30191528 -13.78195679 9.31550049 -13.77703857 8.29919434 C-12.87800492 5.07598258 -11.42874648 3.50761963 -8.75578308 1.51779366 C-5.84415247 -0.07157827 -3.27790831 -0.03001748 0 0 Z " fill="#7FDAFE" transform="translate(330.01513671875,208.432373046875)"/>
<path d="M0 0 C6.6 0 13.2 0 20 0 C20 11.22 20 22.44 20 34 C30.23 34 40.46 34 51 34 C51 40.6 51 47.2 51 54 C40.77 54 30.54 54 20 54 C20 65.22 20 76.44 20 88 C13.4 88 6.8 88 0 88 C0 76.78 0 65.56 0 54 C-10.23 54 -20.46 54 -31 54 C-31 47.4 -31 40.8 -31 34 C-20.77 34 -10.54 34 0 34 C0 22.78 0 11.56 0 0 Z " fill="#FB4658" transform="translate(157,213)"/>
<path d="M0 0 C7.02340589 3.97551277 10.973006 7.65844813 13.65234375 15.4296875 C15.33886025 21.67678413 14.25164403 26.12025904 11.51953125 31.796875 C8.56352723 36.88617642 3.88837107 41.01637631 -1.6875 42.875 C-9.12766493 43.53676816 -15.91408861 44.04603542 -22.07421875 39.36328125 C-27.8934041 33.99497709 -30.6824594 29.01763068 -31.0625 21 C-30.91452532 14.43978937 -28.52495232 10.12077506 -24.4375 5.125 C-16.79817589 -1.12535609 -9.5885936 -2.92533364 0 0 Z " fill="#E3E3E3" transform="translate(123.6875,411.125)"/>
<path d="M0 0 C6.29973944 3.56589025 10.51714728 7.04741283 13.3125 13.875 C14.05366619 19.69081761 14.55629966 26.44684733 11.8125 31.8125 C8.06850302 36.3988963 4.0287889 40.96957037 -1.6875 42.875 C-9.00126875 43.52552581 -15.92020427 44.09612 -22.00390625 39.50390625 C-27.66188471 34.02971363 -30.72732236 29.16534878 -31.0625 21.25 C-30.96575258 15.28684099 -29.26213233 10.64939399 -25.6875 5.875 C-17.96034367 -0.79660783 -9.8808154 -3.01448605 0 0 Z " fill="#E4E4E4" transform="translate(404.6875,411.125)"/>
<path d="M0 0 C3.86328627 1.5847358 6.28876923 4.05956887 9.203125 7.0078125 C9.6857782 7.49329559 10.1684314 7.97877869 10.66571045 8.47897339 C12.19858562 10.02299866 13.72434004 11.57384824 15.25 13.125 C16.29120361 14.17624009 17.33286541 15.22702657 18.375 16.27734375 C20.92199464 18.84633004 23.46265177 21.42148161 26 24 C24.48623919 27.56764285 22.39486871 29.83706287 19.6484375 32.546875 C18.79765625 33.39121094 17.946875 34.23554687 17.0703125 35.10546875 C16.18085938 35.97816406 15.29140625 36.85085937 14.375 37.75 C13.4778125 38.63816406 12.580625 39.52632812 11.65625 40.44140625 C9.44192996 42.63216969 7.22307565 44.81812763 5 47 C-0.99500997 42.03805145 -6.46427037 36.6523376 -11.9375 31.125 C-12.81212891 30.24585937 -13.68675781 29.36671875 -14.58789062 28.4609375 C-16.72757048 26.3095654 -18.86486597 24.15588208 -21 22 C-16.61557474 16.74825074 -11.99157907 11.86777527 -7.125 7.0625 C-6.43664062 6.37865234 -5.74828125 5.69480469 -5.0390625 4.99023438 C-3.36166489 3.32448536 -1.68196209 1.6611378 0 0 Z " fill="#000000" transform="translate(201,43)"/>
<path d="M0 0 C5.25174926 4.38442526 10.13222473 9.00842093 14.9375 13.875 C15.62134766 14.56335937 16.30519531 15.25171875 17.00976562 15.9609375 C18.67551464 17.63833511 20.3388622 19.31803791 22 21 C20.4152642 24.86328627 17.94043113 27.28876923 14.9921875 30.203125 C14.50670441 30.6857782 14.02122131 31.1684314 13.52102661 31.66571045 C11.97700134 33.19858562 10.42615176 34.72434004 8.875 36.25 C7.82375991 37.29120361 6.77297343 38.33286541 5.72265625 39.375 C3.15366996 41.92199464 0.57851839 44.46265177 -2 47 C-7.25174926 42.61557474 -12.13222473 37.99157907 -16.9375 33.125 C-17.62134766 32.43664062 -18.30519531 31.74828125 -19.00976562 31.0390625 C-20.67551464 29.36166489 -22.3388622 27.68196209 -24 26 C-22.4152642 22.13671373 -19.94043113 19.71123077 -16.9921875 16.796875 C-16.50670441 16.3142218 -16.02122131 15.8315686 -15.52102661 15.33428955 C-13.97700134 13.80141438 -12.42615176 12.27565996 -10.875 10.75 C-9.82375991 9.70879639 -8.77297343 8.66713459 -7.72265625 7.625 C-5.15366996 5.07800536 -2.57851839 2.53734823 0 0 Z " fill="#000000" transform="translate(309,43)"/>
<path d="M0 0 C10.23 0 20.46 0 31 0 C31 11.55 31 23.1 31 35 C20.77 35 10.54 35 0 35 C0 23.45 0 11.9 0 0 Z " fill="#000000" transform="translate(240,27)"/>
<path d="M0 0 C2.703125 1.79296875 2.703125 1.79296875 5 5 C5.61781175 9.12000612 5.47031056 13.15844043 5.3125 17.3125 C5.28994141 18.43462891 5.26738281 19.55675781 5.24414062 20.71289062 C5.1853546 23.47583359 5.09567823 26.23808847 5 29 C-1.27 29 -7.54 29 -14 29 C-14.08104454 25.43704188 -14.14052442 21.87593293 -14.1875 18.3125 C-14.21263672 17.30509766 -14.23777344 16.29769531 -14.26367188 15.25976562 C-14.32842751 8.71944697 -13.82100221 5.02250237 -9.25 0.125 C-5.79999675 -1.60000162 -3.65748243 -1.02666173 0 0 Z " fill="#F84557" transform="translate(260,110)"/>
</svg>
